<svg id="Capa_1" enable-background="new 0 0 512 512" height="512" viewBox="0 0 512 512" width="512" xmlns="http://www.w3.org/2000/svg"><g><path d="m380.533 397.6h-1.066v-109.033c0-12.958-10.542-23.5-23.5-23.5h-9.634v-34.2c0-8.547-6.953-15.5-15.5-15.5h-1.066v-9.067c0-4.142-3.357-7.5-7.5-7.5s-7.5 3.358-7.5 7.5v9.067h-1.067c-8.547 0-15.5 6.953-15.5 15.5v34.2h-18.134v-50.767c0-8.547-6.953-15.5-15.5-15.5h-1.066v-9.066c0-4.142-3.357-7.5-7.5-7.5s-7.5 3.358-7.5 7.5v9.066h-1.066c-8.547 0-15.5 6.953-15.5 15.5v50.767h-18.134v-34.2c0-8.547-6.953-15.5-15.5-15.5h-1.066v-9.067c0-4.142-3.357-7.5-7.5-7.5s-7.5 3.358-7.5 7.5v9.067h-1.066c-8.547 0-15.5 6.953-15.5 15.5v34.2h-9.634c-12.958 0-23.5 10.542-23.5 23.5v109.033h-1.066c-8.547 0-15.5 6.953-15.5 15.5v25.133c0 4.142 3.357 7.5 7.5 7.5h265.066c4.143 0 7.5-3.358 7.5-7.5v-25.133c-.001-8.547-6.954-15.5-15.501-15.5zm-67.333-166.733c0-.276.225-.5.5-.5h17.133c.275 0 .5.224.5.5v34.2h-18.133zm-66.266-16.567c0-.276.225-.5.5-.5h17.133c.275 0 .5.224.5.5v50.767h-18.133zm-66.267 16.567c0-.276.225-.5.5-.5h17.133c.275 0 .5.224.5.5v34.2h-18.133zm-33.134 57.7c0-4.687 3.813-8.5 8.5-8.5h199.934c4.686 0 8.5 3.813 8.5 8.5v17.133c0 11.851-9.642 21.492-21.492 21.492-11.851 0-21.491-9.641-21.491-21.492 0-4.142-3.357-7.5-7.5-7.5s-7.5 3.358-7.5 7.5c0 11.851-9.642 21.492-21.492 21.492-11.851 0-21.491-9.641-21.491-21.492 0-4.142-3.357-7.5-7.5-7.5s-7.5 3.358-7.5 7.5c0 11.851-9.641 21.492-21.491 21.492s-21.492-9.641-21.492-21.492c0-4.142-3.357-7.5-7.5-7.5s-7.5 3.358-7.5 7.5c0 11.851-9.641 21.492-21.491 21.492s-21.492-9.641-21.492-21.492v-17.133zm0 90.9h25.634c4.143 0 7.5-3.358 7.5-7.5s-3.357-7.5-7.5-7.5h-25.634v-29.301c6.033 4.413 13.462 7.026 21.492 7.026 11.807 0 22.317-5.641 28.991-14.365 6.674 8.724 17.184 14.365 28.992 14.365 11.807 0 22.317-5.641 28.991-14.365 6.674 8.724 17.184 14.365 28.991 14.365 11.808 0 22.318-5.641 28.992-14.365 6.674 8.724 17.184 14.365 28.991 14.365 8.03 0 15.459-2.613 21.492-7.026v29.301h-25.634c-4.143 0-7.5 3.358-7.5 7.5s3.357 7.5 7.5 7.5h25.634v18.133h-216.932zm233.5 51.266h-250.066v-17.633c0-.276.225-.5.5-.5h249.066c.275 0 .5.224.5.5z"/><path d="m454.801 33.133h-58.768v-9.066c0-13.271-10.796-24.067-24.066-24.067s-24.067 10.796-24.067 24.067v9.066h-183.8v-9.066c0-13.271-10.796-24.067-24.067-24.067s-24.066 10.796-24.066 24.067v9.066h-58.768c-22.404 0-40.632 18.228-40.632 40.632v397.602c0 22.405 18.227 40.632 40.632 40.632h51.268c4.143 0 7.5-3.358 7.5-7.5s-3.357-7.5-7.5-7.5h-51.268c-14.134 0-25.632-11.498-25.632-25.632v-1.635c6.997 5.705 15.921 9.134 25.632 9.134h397.602c9.711 0 18.634-3.429 25.632-9.134v1.635c0 14.134-11.498 25.632-25.632 25.632h-316.334c-4.143 0-7.5 3.358-7.5 7.5s3.357 7.5 7.5 7.5h316.334c22.404 0 40.632-18.227 40.632-40.632v-397.601c0-22.405-18.228-40.633-40.632-40.633zm-91.901-9.066c0-5 4.067-9.067 9.066-9.067s9.066 4.067 9.066 9.067v49.7c0 4.999-4.067 9.067-9.066 9.067s-9.066-4.067-9.066-9.067zm-231.933 0c0-5 4.067-9.067 9.066-9.067s9.066 4.067 9.066 9.067v49.7c0 4.999-4.067 9.067-9.066 9.067s-9.066-4.067-9.066-9.067zm-73.768 24.066h58.768v18.133h-9.067c-4.143 0-7.5 3.358-7.5 7.5s3.357 7.5 7.5 7.5h10.269c3.16 9.608 12.211 16.567 22.864 16.567 10.652 0 19.704-6.959 22.863-16.567h10.27c4.143 0 7.5-3.358 7.5-7.5s-3.357-7.5-7.5-7.5h-9.066v-18.133h183.8v18.133h-9.067c-4.143 0-7.5 3.358-7.5 7.5s3.357 7.5 7.5 7.5h10.27c3.16 9.608 12.211 16.567 22.863 16.567s19.704-6.959 22.863-16.567h10.271c4.143 0 7.5-3.358 7.5-7.5s-3.357-7.5-7.5-7.5h-9.066v-18.133h58.768c14.134 0 25.632 11.499 25.632 25.632v42.201h-93.466c-4.143 0-7.5 3.358-7.5 7.5s3.357 7.5 7.5 7.5h93.466v18.134h-448.867v-18.133h325.399c4.143 0 7.5-3.358 7.5-7.5s-3.357-7.5-7.5-7.5h-325.399v-42.201c0-14.134 11.498-25.633 25.632-25.633zm397.602 415.733h-397.602c-14.134 0-25.632-11.499-25.632-25.632v-274.134h448.865v274.134c.001 14.134-11.497 25.632-25.631 25.632z"/></g></svg>